# AST/ASF file generated using VICON BodyLanguage
# -----------------------------------------------
:version 1.10
:name VICON
:units
  mass 1.0
  length 0.45
  angle deg
:documentation
   .ast/.asf automatically generated from VICON data using
   VICON BodyBuilder and BodyLanguage model FoxedUp or BRILLIANT.MOD
:root
   order TX TY TZ RX RY RZ
   axis XYZ
   position 0 0 0  
   orientation 0 0 0 
:bonedata
  begin
     id 1 
     name lhipjoint
     direction 0.521452 -0.77106 0.36545 
     length 2.0933 
     axis 0 0 0  XYZ
  end
  begin
     id 2 
     name lfemur
     direction 0.34202 -0.939693 0  
     length 6.83441  
     axis 0 0 20  XYZ
    dof rx ry rz
    limits (-160.0 20.0)
           (-70.0 70.0)
           (-60.0 70.0)
  end
  begin
     id 3 
     name ltibia
     direction 0.34202 -0.939693 0   
     length 7.28749   
     axis 0 0 20   XYZ
    dof rx
    limits (-10.0 170.0)
  end
  begin
     id 4 
     name lfoot
     direction 0.100608 -0.276418 0.955757   
     length 1.52195   
     axis -90 7.62852e-016 20   XYZ
    dof rx rz
    limits (-45.0 90.0)
           (-70.0 20.0)
  end
  begin
     id 5 
     name ltoes
     direction 1.53558e-011 -4.21907e-011 1   
     length 0.770459   
     axis -90 7.62852e-016 20   XYZ
    dof rx
    limits (-90.0 20.0)
  end
  begin
     id 6 
     name rhipjoint
     direction -0.488071 -0.788702 0.373812   
     length 2.04648  
     axis 0 0 0  XYZ 
  end
  begin
     id 7 
     name rfemur
     direction -0.34202 -0.939693 0   
     length 6.92583   
     axis 0 0 -20   XYZ
    dof rx ry rz
    limits (-160.0 20.0)
           (-70.0 70.0)
           (-70.0 60.0)
  end
  begin
     id 8 
     name rtibia
     direction -0.34202 -0.939693 0   
     length 7.41043   
     axis 0 0 -20   XYZ
    dof rx
    limits (-10.0 170.0)
 end
 begin
     id 9 
     name rfoot
     direction -0.0784433 -0.215521 0.973343   
     length 1.67708  
     axis -90 -7.62852e-016 -20   XYZ
    dof rx rz
    limits (-45.0 90.0)
           (-20.0 70.0)
  end
  begin
     id 10 
     name rtoes
     direction -1.53551e-011 -4.21842e-011 1   
     length 0.849787   
     axis -90 -7.62852e-016 -20   XYZ
    dof rx
    limits (-90.0 20.0)
  end
  begin
     id 11 
     name lowerback
     direction -0.0122332 0.997575 -0.0685192   
     length 1.98724   
     axis 0 0 0   XYZ
    dof rx ry rz
    limits (-20.0 45.0)
           (-30.0 30.0)
           (-30.0 30.0)
  end
  begin
     id 12 
     name upperback
     direction 0.0182347 0.999724 -0.0148421   
     length 1.99029   
     axis 0 0 0   XYZ
    dof rx ry rz
    limits (-20.0 45.0)
           (-30.0 30.0)
           (-30.0 30.0)
  end
  begin
     id 13 
     name thorax
     direction 0.0242908 0.99956 0.0170184   
     length 1.99573   
     axis 0 0 0   XYZ
    dof rx ry rz
    limits (-20.0 45.0)
           (-30.0 30.0)
           (-30.0 30.0)
  end
  begin
     id 14 
     name lowerneck
     direction 0.0654488 0.985533 0.156338   
     length 1.4285   
     axis 0 0 0   XYZ
    dof rx ry rz
    limits (-20.0 45.0)
           (-30.0 30.0)
           (-30.0 30.0)
  end
  begin
     id 15 
     name upperneck
     direction -0.02953 0.998556 -0.0448842   
     length 1.44709   
     axis 0 0 0   XYZ
    dof rx ry rz
    limits (-20.0 45.0)
           (-30.0 30.0)
           (-30.0 30.0)
  end
  begin
     id 16
     name head
     direction -0.0155588 0.999386 -0.0314063  
     length 1.44689  
     axis 0 0 0   XYZ
    dof rx ry rz
    limits (-20.0 45.0)
           (-30.0 30.0)
           (-30.0 30.0)
  end
  begin
     id 17 
     name lclavicle
     direction 0.968229 0.236071 -0.0824755  
     length 3.60593  
     axis 0 0 0   XYZ
    dof ry rz
    limits (-20.0 10.0)
           (0.0 20.0)
  end
  begin
     id 18 
     name lhumerus
     direction 1 -4.48968e-011 7.8138e-029   
     length 5.06035   
     axis 180 -30 -90   XYZ
    dof rx ry rz
    limits (-60.0 90.0)
           (-90.0 90.0)
           (-90.0 90.0)
  end
  begin
     id 19
     name lradius
     direction 1 -4.48967e-011 9.02887e-028   
     length 3.1478   
     axis 180 -30 -90   XYZ
    dof rx
    limits (-10.0 170.0)
  end
  begin
     id 20
     name lwrist
     direction 1 -4.48961e-011 7.20928e-028   
     length 1.5739   
     axis -5.52449e-016 90 90   XYZ
    dof ry
    limits (-180.0 0.0)
 end
  begin
     id 21 
     name lhand
     direction 1 -4.48972e-011 1.44186e-027   
     length 0.606747   
     axis -9.20027e-016 90 90   XYZ
    dof rx rz
    limits (-90.0 90.0)
           (-45.0 45.0)
  end
  begin
     id 22 
     name lfingers
     direction 1 -4.48943e-011 2.88371e-027   
     length 0.489175   
     axis -1.84005e-015 90 90   XYZ
    dof rx
    limits (0.0 90.0)
  end
  begin
     id 23
     name lthumb
     direction 0.707107 -6.34917e-011 0.707107   
     length 0.70236   
     axis -90 45 2.85299e-015   XYZ
    dof rx rz
    limits (-45.0 45.0)
           (-45.0 45.0)
  end
  begin
     id 24 
     name rclavicle
     direction -0.978165 0.207816 0.0022268   
     length 3.35425  
     axis 0 0 0   XYZ 
    dof ry rz
    limits (-10.0 20.0)
           (-20.0 0.0)
  end
  begin
     id 25 
     name rhumerus
     direction -1 -4.48964e-011 -4.02159e-027  
     length 5.12273   
     axis 180 30 90   XYZ
    dof rx ry rz
    limits (-90.0 60.0)
           (-90.0 90.0)
           (-90.0 90.0)
  end
  begin
     id 26 
     name rradius
     direction -1 -4.48966e-011 1.62746e-027   
     length 3.422   
     axis 180 30 90   XYZ
    dof rx
    limits (-10.0 170.0)
  end
  begin
     id 27 
     name rwrist
     direction -1 -4.4896e-011 7.20928e-028   
     length 1.711   
     axis -5.52449e-016 -90 -90   XYZ
    dof ry
    limits (-180.0 0.0)
  end
  begin
     id 28
     name rhand
     direction -1 -4.48979e-011 1.44186e-027   
     length 0.704599   
     axis -9.20027e-016 -90 -90   XYZ
    dof rx rz
    limits (-90.0 90.0)
           (-45.0 45.0)
  end
  begin
     id 29
     name rfingers
     direction -1 -4.48962e-011 2.88371e-027   
     length 0.568066   
     axis -1.84005e-015 -90 -90   XYZ
    dof rx
    limits (0.0 90.0)
  end
  begin
     id 30
     name rthumb
     direction -0.707107 -6.34949e-011 0.707107   
     length 0.815633   
     axis -90 -45 -2.85299e-015   XYZ
    dof rx rz
    limits (-45.0 45.0)
           (-45.0 45.0)
  end
:hierarchy
  begin
    root lhipjoint rhipjoint lowerback
    lhipjoint lfemur
    lfemur ltibia
    ltibia lfoot
    lfoot ltoes
    rhipjoint rfemur
    rfemur rtibia
    rtibia rfoot
    rfoot rtoes
    lowerback upperback
    upperback thorax
    thorax lowerneck lclavicle rclavicle
    lowerneck upperneck
    upperneck head
    lclavicle lhumerus
    lhumerus lradius
    lradius lwrist
    lwrist lhand lthumb
    lhand lfingers
    rclavicle rhumerus
    rhumerus rradius
    rradius rwrist
    rwrist rhand rthumb
    rhand rfingers
  end

#!OML:ASF E:\id_vita\Project 1\Capture day 1\Session 1\Male1.ASF
:FULLY-SPECIFIED
:DEGREES
525
root -23.3264 16 -1.25258 -13.3542 87.251 -17.3669
lowerback -6.24793 -2.95454 -7.20381
upperback -2.33964 -3.4926 1.84308
thorax 1.61596 -1.71789 5.68851
lowerneck 0.922977 -9.2941 -6.98698
upperneck 2.35214 -12.6543 9.75953
head 1.79752 -6.29856 4.17802
rclavicle 2.59352e-014 -9.29318e-015
rhumerus -31.9714 -18.3786 -79.1968
rradius 13.2061
rwrist 21.4439
rhand -20.3146 36.9392
rfingers 7.12502
rthumb 6.03613 7.04519
lclavicle 2.59352e-014 -9.29318e-015
lhumerus -27.9368 26.09 80.2676
lradius 10.7452
lwrist -22.4629
lhand -12.3452 43.0655
lfingers 7.12502
lthumb 13.7243 72.5929
rfemur -4.99037 5.37466 14.0319
rtibia 18.4469
rfoot -12.8024 -15.9568
rtoes -18.4826
lfemur -9.45946 -4.85146 -16.3577
ltibia 28.2262
lfoot -22.0048 16.5836
ltoes -11.1028
526
root -23.3276 15.9961 -1.25615 -13.1818 87.3752 -17.0816
lowerback -6.12418 -2.99241 -7.11009
upperback -2.29879 -3.55612 1.73316
thorax 1.58711 -1.75045 5.51848
lowerneck 0.866685 -9.38066 -6.84746
upperneck 2.40246 -12.7687 9.70122
head 1.81937 -6.3523 4.12262
rclavicle 1.10077e-014 -5.96354e-016
rhumerus -32.0294 -18.668 -79.2206
rradius 13.2404
rwrist 21.5922
rhand -20.2512 36.9733
rfingers 7.12502
rthumb 6.09732 7.08101
lclavicle 1.10077e-014 -5.96354e-016
lhumerus -27.9059 25.6712 80.2971
lradius 10.812
lwrist -22.0932
lhand -12.3919 43.2448
lfingers 7.12502
lthumb 13.6793 72.7753
rfemur -4.89529 5.28583 14.0132
rtibia 18.5602
rfoot -12.7127 -16.1747
rtoes -19.169
lfemur -9.34412 -4.88888 -16.4137
ltibia 28.1725
lfoot -21.9057 16.5288
ltoes -11.6441
527
root -23.3287 15.9957 -1.25547 -8.48973 87.2557 -12.4937
lowerback -6.18911 -2.98848 -7.23741
upperback -2.36915 -3.53649 1.64752
thorax 1.5489 -1.73593 5.50135
lowerneck 0.867524 -9.46482 -6.72175
upperneck 2.47457 -12.8815 9.56264
head 1.83204 -6.40758 4.04481
rclavicle -2.81218e-014 1.3418e-014
rhumerus -32.1483 -18.7532 -79.2262
rradius 13.3068
rwrist 21.6349
rhand -20.0606 37.0257
rfingers 7.12502
rthumb 6.28136 7.13885
lclavicle -2.81218e-014 1.3418e-014
lhumerus -27.9739 25.5784 80.2077
lradius 10.8259
lwrist -21.9992
lhand -12.557 43.0776
lfingers 7.12502
lthumb 13.5202 72.6187
rfemur -5.10687 5.18065 13.789
rtibia 18.6434
rfoot -12.584 -16.0928
rtoes -20.0245
lfemur -9.42344 -4.89506 -16.6196
ltibia 28.1252
lfoot -21.7069 16.7427
ltoes -11.9824
528
root -23.3294 15.9915 -1.25807 -7.37623 87.4333 -11.2751
lowerback -6.10157 -3.05489 -7.26026
upperback -2.30457 -3.62931 1.58788
thorax 1.57877 -1.78615 5.44517
lowerneck 0.885455 -9.54463 -6.66478
upperneck 2.37831 -12.9812 9.48135
head 1.79454 -6.4595 4.00466
rclavicle -4.26145e-015 1.59028e-014
rhumerus -32.078 -18.8654 -79.2299
rradius 13.2673
rwrist 21.7013
rhand -19.9614 37.1243
rfingers 7.12502
rthumb 6.37706 7.24033
lclavicle -4.26145e-015 1.59028e-014
lhumerus -27.8993 25.7321 80.1098
lradius 10.76
lwrist -22.1877
lhand -12.687 42.8791
lfingers 7.12502
lthumb 13.3949 72.4285
rfemur -4.97947 5.11694 13.7126
rtibia 18.6928
rfoot -12.5149 -16.2463
rtoes -20.6008
lfemur -9.35257 -4.93221 -16.7137
ltibia 28.113
lfoot -21.5147 16.7119
ltoes -12.9371
529
root -23.3297 15.9927 -1.25704 -10.645 87.3228 -14.5977
lowerback -6.16145 -3.06929 -7.12469
upperback -2.28332 -3.65333 1.66727
thorax 1.63507 -1.80119 5.44615
lowerneck 0.935734 -9.57697 -6.74739
upperneck 2.26385 -13.0215 9.49841
head 1.75917 -6.48343 4.02882
rclavicle -2.65315e-014 -1.32192e-014
rhumerus -31.9941 -19.2622 -79.0302
rradius 13.1281
rwrist 22.2908
rhand -19.9657 37.2776
rfingers 7.12502
rthumb 6.37291 7.39349
lclavicle -2.65315e-014 -1.32192e-014
lhumerus -27.8609 25.7598 80.136
lradius 10.7794
lwrist -22.1109
lhand -12.6533 42.9744
lfingers 7.12502
lthumb 13.4274 72.5216
rfemur -5.07024 5.11606 13.8987
rtibia 18.7076
rfoot -12.7141 -16.1632
rtoes -20.1175
lfemur -9.38718 -4.90989 -16.5205
ltibia 28.0825
lfoot -21.3749 16.797
ltoes -13.3335
530
root -23.331 15.9939 -1.2577 -14.2772 87.3438 -18.2035
lowerback -6.09837 -3.14336 -7.00939
upperback -2.25825 -3.76594 1.76643
thorax 1.64236 -1.8592 5.47672
lowerneck 0.97091 -9.59481 -6.98707
upperneck 2.23307 -13.0523 9.65159
head 1.77752 -6.50142 4.12631
rclavicle -1.34428e-014 -2.28602e-015
rhumerus -31.9118 -19.7023 -78.751
rradius 12.9479
rwrist 22.9524
rhand -19.8492 37.5362
rfingers 7.12502
rthumb 6.48537 7.65551
lclavicle -1.34428e-014 -2.28602e-015
lhumerus -27.92 25.8677 80.1535
lradius 10.8601
lwrist -22.029
lhand -12.4949 43.1102
lfingers 7.12502
lthumb 13.58 72.6473
rfemur -5.0232 5.32564 14.0729
rtibia 18.722
rfoot -13.1182 -16.1446
rtoes -18.06
lfemur -9.36502 -4.90332 -16.3387
ltibia 28.0701
lfoot -21.5378 16.6813
ltoes -12.992
531
root -23.3306 15.9997 -1.25617 -12.2588 87.3206 -16.347
lowerback -6.24894 -3.18063 -7.11139
upperback -2.3037 -3.79773 1.76826
thorax 1.6899 -1.87453 5.52706
lowerneck 1.06019 -9.64666 -7.1364
upperneck 2.19032 -13.1284 9.76232
head 1.77589 -6.54285 4.19411
rclavicle 3.60546e-014 -5.26779e-015
rhumerus -31.888 -19.6543 -78.7594
rradius 12.9153
rwrist 22.8428
rhand -19.841 37.6488
rfingers 7.12502
rthumb 6.49332 7.76838
lclavicle 3.60546e-014 -5.26779e-015
lhumerus -28.0081 25.9163 80.1227
lradius 10.9098
lwrist -22.0475
lhand -12.511 43.0565
lfingers 7.12502
lthumb 13.5645 72.5946
rfemur -5.19191 5.57089 13.9699
rtibia 18.7014
rfoot -13.2283 -16.133
rtoes -17.1443
lfemur -9.52755 -4.87081 -16.402
ltibia 28.0537
lfoot -21.689 16.5969
ltoes -12.4896
532
root -23.3307 15.9963 -1.25703 -9.31442 87.3663 -13.2231
lowerback -6.0723 -3.19248 -7.26048
upperback -2.25988 -3.81755 1.70373
thorax 1.64483 -1.88493 5.54913
lowerneck 1.16059 -9.72328 -7.07709
upperneck 2.17379 -13.2309 9.62903
head 1.7458 -6.59753 4.13821
rclavicle -3.07806e-014 -1.15295e-014
rhumerus -31.9019 -19.1521 -79.0398
rradius 13.0555
rwrist 22.2344
rhand -19.9228 37.4426
rfingers 7.12502
rthumb 6.41435 7.55975
lclavicle -3.07806e-014 -1.15295e-014
lhumerus -28.0407 25.7985 80.1179
lradius 10.9329
lwrist -21.9678
lhand -12.6459 42.9317
lfingers 7.12502
lthumb 13.4345 72.4785
rfemur -5.00048 5.4422 13.8274
rtibia 18.6883
rfoot -13.0442 -16.1653
rtoes -18.2416
lfemur -9.32387 -4.87644 -16.5902
ltibia 28.0349
lfoot -21.671 16.5463
ltoes -12.2593
533
root -23.3288 15.9983 -1.2583 -9.26337 87.2775 -13.2568
lowerback -6.16575 -3.20821 -7.22468
upperback -2.28488 -3.83359 1.72741
thorax 1.67269 -1.89277 5.54828
lowerneck 1.17173 -9.787 -7.05298
upperneck 2.24972 -13.3162 9.42684
head 1.75741 -6.64148 4.05868
rclavicle 3.32529e-014 5.01931e-015
rhumerus -31.8879 -19.0399 -79.0768
rradius 13.083
rwrist 22.243
rhand -19.9851 37.2763
rfingers 7.12502
rthumb 6.35422 7.39161
lclavicle 3.32529e-014 5.01931e-015
lhumerus -28.1013 25.8157 80.1146
lradius 10.9716
lwrist -21.9353
lhand -12.749 42.8756
lfingers 7.12502
lthumb 13.3351 72.4289
rfemur -5.1189 5.36488 13.8456
rtibia 18.7051
rfoot -12.818 -16.2329
rtoes -19.163
lfemur -9.37796 -4.82867 -16.5766
ltibia 28.0028
lfoot -21.6566 16.5632
ltoes -11.8808
534
root -23.3279 15.998 -1.26197 -10.0478 87.3907 -14.048
lowerback -6.14666 -3.28915 -7.18368
upperback -2.28966 -3.94612 1.76068
thorax 1.67376 -1.94899 5.55028
lowerneck 1.28336 -9.79515 -7.21414
upperneck 2.09422 -13.3281 9.5198
head 1.70798 -6.65313 4.12932
rclavicle -8.04892e-014 1.0635e-014
rhumerus -31.8267 -19.0387 -79.0217
rradius 13.0425
rwrist 22.3635
rhand -20.1168 37.2098
rfingers 7.12502
rthumb 6.22708 7.32131
lclavicle -8.04892e-014 1.0635e-014
lhumerus -28.1759 25.9363 80.1147
lradius 11.0141
lwrist -21.9518
lhand -12.7402 42.8565
lfingers 7.12502
lthumb 13.3436 72.4092
rfemur -5.09996 5.29388 13.8549
rtibia 18.7146
rfoot -12.7729 -16.3051
rtoes -19.1818
lfemur -9.41476 -4.90687 -16.5643
ltibia 28.0143
lfoot -21.7648 16.5192
ltoes -11.7442
535
root -23.3302 15.9977 -1.2593 -10.7055 87.135 -14.7496
lowerback -6.17607 -3.238 -7.15133
upperback -2.29921 -3.87872 1.81001
thorax 1.67143 -1.91492 5.58915
lowerneck 1.47723 -9.7963 -7.39201
upperneck 1.81288 -13.3318 9.79582
head 1.61863 -6.66247 4.27509
rclavicle 2.50841e-014 1.02871e-014
rhumerus -31.7853 -18.6454 -79.2104
rradius 13.145
rwrist 21.9174
rhand -20.1799 37.0422
rfingers 7.12502
rthumb 6.16614 7.15192
lclavicle 2.50841e-014 1.02871e-014
lhumerus -28.1923 26.012 80.0937
lradius 11.003
lwrist -21.9732
lhand -12.7235 42.7223
lfingers 7.12502
lthumb 13.3598 72.274
rfemur -5.19271 5.36733 13.9264
rtibia 18.6463
rfoot -12.7807 -16.0912
rtoes -19.1433
lfemur -9.42763 -4.93827 -16.4791
ltibia 28.0378
lfoot -21.6011 16.8294
ltoes -11.9902
